<svg width="16" height="16" viewBox="0 0 16 16" fill="none" xmlns="http://www.w3.org/2000/svg">
<path fill-rule="evenodd" clip-rule="evenodd" d="M8 16C12.4183 16 16 12.4183 16 8C16 3.58172 12.4183 0 8 0C3.58172 0 0 3.58172 0 8C0 12.4183 3.58172 16 8 16Z" fill="#FFD7D5"/>
<path fill-rule="evenodd" clip-rule="evenodd" d="M10.902 5.19641C10.6646 4.93453 10.2796 4.93453 10.0422 5.19641L8.04006 7.40455L6.03794 5.19641C5.8005 4.93453 5.41553 4.93453 5.17808 5.19641C4.94064 5.45828 4.94064 5.88287 5.17808 6.14475L7.1802 8.35288L5.17808 10.561C4.94064 10.8229 4.94064 11.2475 5.17808 11.5094C5.41553 11.7712 5.8005 11.7712 6.03794 11.5094L8.04006 9.30122L10.0422 11.5094C10.2796 11.7712 10.6646 11.7712 10.902 11.5094C11.1395 11.2475 11.1395 10.8229 10.902 10.561L8.89992 8.35288L10.902 6.14475C11.1395 5.88287 11.1395 5.45828 10.902 5.19641Z" fill="#FF6159"/>
</svg>
